<svg xmlns="http://www.w3.org/2000/svg" width="600" height="400"><rect width="100%" height="100%" fill="white"/><g transform="translate(60,10)"><g transform="translate(0,360)" fill="none" font-size="10" font-family="sans-serif" text-anchor="middle"><path class="domain" stroke="currentColor" d="M0.5,6V0.5H510.5V6"/><g class="tick" opacity="1" transform="translate(0.5,0)"><line stroke="currentColor" y2="6"/><text fill="currentColor" y="9" dy="0.71em">2018-01</text></g><g class="tick" opacity="1" transform="translate(128,0)"><line stroke="currentColor" y2="6"/><text fill="currentColor" y="9" dy="0.71em">2018-02</text></g><g class="tick" opacity="1" transform="translate(255.5,0)"><line stroke="currentColor" y2="6"/><text fill="currentColor" y="9" dy="0.71em">2018-03</text></g><g class="tick" opacity="1" transform="translate(383,0)"><line stroke="currentColor" y2="6"/><text fill="currentColor" y="9" dy="0.71em">2018-04</text></g><g class="tick" opacity="1" transform="translate(510.5,0)"><line stroke="currentColor" y2="6"/><text fill="currentColor" y="9" dy="0.71em">2018-05</text></g></g><g fill="none" font-size="10" font-family="sans-serif" text-anchor="end"><path class="domain" stroke="currentColor" d="M-6,360.5H0.5V0.5H-6"/><g class="tick" opacity="1" transform="translate(0,358.5540540540541)"><line stroke="currentColor" x2="-6"/><text fill="currentColor" x="-9" dy="0.32em">4.0</text></g><g class="tick" opacity="1" transform="translate(0,309.9054054054054)"><line stroke="currentColor" x2="-6"/><text fill="currentColor" x="-9" dy="0.32em">4.5</text></g><g class="tick" opacity="1" transform="translate(0,261.2567567567568)"><line stroke="currentColor" x2="-6"/><text fill="currentColor" x="-9" dy="0.32em">5.0</text></g><g class="tick" opacity="1" transform="translate(0,212.6081081081081)"><line stroke="currentColor" x2="-6"/><text fill="currentColor" x="-9" dy="0.32em">5.5</text></g><g class="tick" opacity="1" transform="translate(0,163.95945945945948)"><line stroke="currentColor" x2="-6"/><text fill="currentColor" x="-9" dy="0.32em">6.0</text></g><g class="tick" opacity="1" transform="translate(0,115.31081081081079)"><line stroke="currentColor" x2="-6"/><text fill="currentColor" x="-9" dy="0.32em">6.5</text></g><g class="tick" opacity="1" transform="translate(0,66.66216216216216)"><line stroke="currentColor" x2="-6"/><text fill="currentColor" x="-9" dy="0.32em">7.0</text></g><g class="tick" opacity="1" transform="translate(0,18.013513513513495)"><line stroke="currentColor" x2="-6"/><text fill="currentColor" x="-9" dy="0.32em">7.5</text></g></g><path fill="none" stroke="#69b3a2" stroke-width="1.5" d="M0,122.59459459459458L127.5,311.35135135135135L255,175.13513513513516L382.5,48.648648648648674L510,265.6216216216216"/><g><circle cx="0" cy="122.59459459459458" r="5" fill="#69b3a2"/><circle cx="127.5" cy="311.35135135135135" r="5" fill="#69b3a2"/><circle cx="255" cy="175.13513513513516" r="5" fill="#69b3a2"/><circle cx="382.5" cy="48.648648648648674" r="5" fill="#69b3a2"/><circle cx="510" cy="265.6216216216216" r="5" fill="#69b3a2"/></g><path fill="none" stroke="#ff0000" stroke-width="1.5" d="M-127.5,151.7837837837838L64897.5,151.7837837837838"/></g></svg>