<svg xmlns="http://www.w3.org/2000/svg" width="600" height="400"><rect width="100%" height="100%" fill="white"/><g transform="translate(60,10)"><g transform="translate(0,360)" fill="none" font-size="10" font-family="sans-serif" text-anchor="middle"><path class="domain" stroke="currentColor" d="M0.5,6V0.5H510.5V6"/><g class="tick" opacity="1" transform="translate(0.5,0)"><line stroke="currentColor" y2="6"/><text fill="currentColor" y="9" dy="0.71em">0.0</text></g><g class="tick" opacity="1" transform="translate(43,0)"><line stroke="currentColor" y2="6"/><text fill="currentColor" y="9" dy="0.71em">0.5</text></g><g class="tick" opacity="1" transform="translate(85.5,0)"><line stroke="currentColor" y2="6"/><text fill="currentColor" y="9" dy="0.71em">1.0</text></g><g class="tick" opacity="1" transform="translate(128,0)"><line stroke="currentColor" y2="6"/><text fill="currentColor" y="9" dy="0.71em">1.5</text></g><g class="tick" opacity="1" transform="translate(170.5,0)"><line stroke="currentColor" y2="6"/><text fill="currentColor" y="9" dy="0.71em">2.0</text></g><g class="tick" opacity="1" transform="translate(213,0)"><line stroke="currentColor" y2="6"/><text fill="currentColor" y="9" dy="0.71em">2.5</text></g><g class="tick" opacity="1" transform="translate(255.5,0)"><line stroke="currentColor" y2="6"/><text fill="currentColor" y="9" dy="0.71em">3.0</text></g><g class="tick" opacity="1" transform="translate(298,0)"><line stroke="currentColor" y2="6"/><text fill="currentColor" y="9" dy="0.71em">3.5</text></g><g class="tick" opacity="1" transform="translate(340.5,0)"><line stroke="currentColor" y2="6"/><text fill="currentColor" y="9" dy="0.71em">4.0</text></g><g class="tick" opacity="1" transform="translate(383,0)"><line stroke="currentColor" y2="6"/><text fill="currentColor" y="9" dy="0.71em">4.5</text></g><g class="tick" opacity="1" transform="translate(425.5,0)"><line stroke="currentColor" y2="6"/><text fill="currentColor" y="9" dy="0.71em">5.0</text></g><g class="tick" opacity="1" transform="translate(468,0)"><line stroke="currentColor" y2="6"/><text fill="currentColor" y="9" dy="0.71em">5.5</text></g><g class="tick" opacity="1" transform="translate(510.5,0)"><line stroke="currentColor" y2="6"/><text fill="currentColor" y="9" dy="0.71em">6.0</text></g></g><g fill="none" font-size="10" font-family="sans-serif" text-anchor="end"><path class="domain" stroke="currentColor" d="M-6,360.5H0.5V0.5H-6"/><g class="tick" opacity="1" transform="translate(0,360.5)"><line stroke="currentColor" x2="-6"/><text fill="currentColor" x="-9" dy="0.32em">0</text></g><g class="tick" opacity="1" transform="translate(0,315.5)"><line stroke="currentColor" x2="-6"/><text fill="currentColor" x="-9" dy="0.32em">1</text></g><g class="tick" opacity="1" transform="translate(0,270.5)"><line stroke="currentColor" x2="-6"/><text fill="currentColor" x="-9" dy="0.32em">2</text></g><g class="tick" opacity="1" transform="translate(0,225.5)"><line stroke="currentColor" x2="-6"/><text fill="currentColor" x="-9" dy="0.32em">3</text></g><g class="tick" opacity="1" transform="translate(0,180.5)"><line stroke="currentColor" x2="-6"/><text fill="currentColor" x="-9" dy="0.32em">4</text></g><g class="tick" opacity="1" transform="translate(0,135.5)"><line stroke="currentColor" x2="-6"/><text fill="currentColor" x="-9" dy="0.32em">5</text></g><g class="tick" opacity="1" transform="translate(0,90.5)"><line stroke="currentColor" x2="-6"/><text fill="currentColor" x="-9" dy="0.32em">6</text></g><g class="tick" opacity="1" transform="translate(0,45.5)"><line stroke="currentColor" x2="-6"/><text fill="currentColor" x="-9" dy="0.32em">7</text></g><g class="tick" opacity="1" transform="translate(0,0.5)"><line stroke="currentColor" x2="-6"/><text fill="currentColor" x="-9" dy="0.32em">8</text></g></g><path fill="none" stroke="#69b3a2" stroke-width="1.5" d="M85,71.10000000000001L170,158.39999999999998L255,95.4L340,36.90000000000001L425,137.25"/><g><circle cx="85" cy="71.10000000000001" r="5" fill="#69b3a2"/><circle cx="170" cy="158.39999999999998" r="5" fill="#69b3a2"/><circle cx="255" cy="95.4" r="5" fill="#69b3a2"/><circle cx="340" cy="36.90000000000001" r="5" fill="#69b3a2"/><circle cx="425" cy="137.25" r="5" fill="#69b3a2"/></g><path fill="none" stroke="#ff0000" stroke-width="1.5" d="M0,84.6L43350,84.6"/></g></svg>